<?xml version="1.0" encoding="UTF-8" standalone="no"?>
<!-- Created with Inkscape (http://www.inkscape.org/) -->

<svg
   width="33.866665mm"
   height="24.882494mm"
   viewBox="0 0 33.866665 24.882494"
   version="1.1"
   id="svg1"
   xml:space="preserve"
   xmlns:inkscape="http://www.inkscape.org/namespaces/inkscape"
   xmlns:sodipodi="http://sodipodi.sourceforge.net/DTD/sodipodi-0.dtd"
   xmlns="http://www.w3.org/2000/svg"
   xmlns:svg="http://www.w3.org/2000/svg"><sodipodi:namedview
     id="namedview1"
     pagecolor="#ffffff"
     bordercolor="#000000"
     borderopacity="0.25"
     inkscape:showpageshadow="2"
     inkscape:pageopacity="0.0"
     inkscape:pagecheckerboard="0"
     inkscape:deskcolor="#d1d1d1"
     inkscape:document-units="mm"><inkscape:page
       x="0"
       y="0"
       width="33.866665"
       height="24.882494"
       id="page2"
       margin="0"
       bleed="0" /></sodipodi:namedview><defs
     id="defs1" /><g
     inkscape:label="Livello 1"
     inkscape:groupmode="layer"
     id="layer1"
     transform="translate(-139.05512,-161.09217)"><path
       style="fill:#000000"
       d="m 139.05511,173.53303 v -12.44088 l 6.42055,0.0936 c 6.33312,0.0924 6.44169,0.10413 7.97278,0.86254 0.85372,0.42289 1.77447,0.93024 2.04611,1.12745 0.39291,0.28525 0.59486,0.28734 0.98777,0.0102 2.42606,-1.71129 4.22467,-2.04762 10.95001,-2.04762 h 5.48944 v 1.83444 1.83445 l -5.00945,0.002 c -5.64256,0.002 -6.78014,0.21135 -7.81352,1.43945 -0.612,0.72732 -0.7237,1.13917 -0.7237,2.6684 0,1.57462 0.10031,1.92028 0.77611,2.67444 1.0622,1.18536 2.19948,1.38596 7.90222,1.39385 l 4.86834,0.007 v 1.83445 1.83444 l -4.72722,0.003 -4.72723,0.003 -2.35667,4.6537 -2.35667,4.6537 h -2.77155 -2.77156 l -2.35066,-4.58611 -2.35066,-4.58611 -1.76389,-0.084 -1.76389,-0.084 v -1.82098 -1.82098 l 1.76389,-0.0123 c 4.43829,-0.0309 5.85611,-1.02797 5.85611,-4.11817 0,-3.10521 -1.39744,-4.04948 -5.99722,-4.05241 l -2.46945,-0.002 v 10.58333 10.58333 h -2.54 -2.53999 z m 4.51555,1.57532 v -10.58334 h 3.55479 c 3.97615,0 4.792,0.26507 5.63523,1.83085 0.35947,0.66749 0.44735,1.37861 0.36044,2.91662 -0.10416,1.84337 -0.20043,2.11947 -1.02756,2.94712 -0.88921,0.88975 -0.98495,0.91568 -3.72999,1.01019 l -2.81735,0.097 v 1.52577 1.52578 l 1.76389,0.005 1.76388,0.005 2.38042,4.65138 2.38042,4.65137 h 2.1358 2.1358 l 2.39823,-4.65111 2.39822,-4.65111 4.72722,-0.006 4.72722,-0.006 v -1.53608 -1.53609 l -5.78076,-0.0867 -5.78075,-0.0867 -0.91257,-0.91319 c -0.81882,-0.81939 -0.92385,-1.11296 -1.02244,-2.85774 -0.12899,-2.28279 0.36658,-3.6145 1.62074,-4.35536 0.69361,-0.40972 1.63936,-0.48149 6.34544,-0.48149 h 5.53034 v -1.5962 -1.5962 l -5.43277,0.17175 c -5.81515,0.18384 -7.36284,0.47307 -9.26412,1.73128 -1.37458,0.90965 -1.96941,0.90965 -3.34399,0 -1.82626,-1.20857 -3.32358,-1.48558 -9.18044,-1.69845 l -5.51645,-0.2005 v 12.1775 12.17749 h 1.97555 1.97556 z m 10.50511,3.66474 c -1.55737,-3.14019 -1.54449,-3.72203 0.10458,-4.72308 0.70319,-0.42686 1.51683,-0.77611 1.80808,-0.77611 0.29126,0 1.1049,0.34925 1.80809,0.77611 1.64907,1.00105 1.66195,1.58289 0.10458,4.72308 -1.03042,2.07765 -1.2894,2.40304 -1.91267,2.40304 -0.62326,0 -0.88224,-0.32539 -1.91266,-2.40304 z m 3.45437,-0.68046 1.26514,-2.51905 -1.41981,-1.02003 -1.4198,-1.02003 -0.85194,0.71686 c -0.46856,0.39427 -0.93744,0.7188 -1.04195,0.72118 -0.10451,0.002 -0.35903,0.11147 -0.56561,0.24242 -0.29402,0.18639 -0.0942,0.79845 0.92006,2.8179 0.7126,1.41889 1.4201,2.5798 1.5722,2.5798 0.15211,0 0.84588,-1.13357 1.54171,-2.51905 z m 10.31163,3.78905 v -4.09222 h 2.54 0.45048 2.08952 v 4.09222 4.09222 h -2.54 -2.54 z m 4.51555,0 v -3.81 h -1.97555 -1.97556 v 3.81 3.81 h 1.97556 1.97555 z"
       id="path193"
       sodipodi:nodetypes="cccsscsccccsssccccccccccccccccsscccccccccssssscccccccccccccccccsssscccssssccccccsssssssscccscssssccccccccccccccccccc"
       inkscape:export-filename="logo-white-new.png"
       inkscape:export-xdpi="96"
       inkscape:export-ydpi="96" /><path
       style="fill:#ffffff;stroke:#000000;stroke-width:0.24085;paint-order:stroke markers fill"
       d="M 527.83434,655.85109 V 609.8869 l 4.50884,0.16266 c 2.47986,0.0895 8.675,0.32048 13.76698,0.51337 25.0621,0.94935 29.48767,1.74233 37.35586,6.69342 3.02101,1.90098 4.43779,2.39105 6.53013,2.2588 1.87401,-0.11846 2.88306,-0.54997 6.49273,-2.77656 6.30386,-3.88847 11.39044,-5.07197 25.00901,-5.81884 4.72197,-0.25896 25.2778,-0.96448 28.10092,-0.96448 h 1.59727 v 5.89154 5.89155 l -16.77287,0.004 c -16.23191,0.003 -22.30054,0.18272 -25.06912,0.74052 -2.86075,0.57637 -5.92892,2.9751 -7.32217,5.72455 -1.37263,2.70876 -1.66733,4.47226 -1.65163,9.88341 0.0164,5.65147 0.38526,8.27152 1.4109,10.02164 0.3571,0.60934 1.79904,2.2865 3.20432,3.72702 l 2.55504,2.61914 21.76265,0.34564 c 11.96946,0.19011 21.7897,0.34888 21.82276,0.35283 0.0331,0.004 0.0601,2.54948 0.0601,5.65672 v 5.64953 l -17.8116,0.0617 -17.8116,0.0617 -9.06106,17.60826 -9.06106,17.60827 -7.93555,0.006 -7.93555,0.006 -9.01767,-17.667 -9.01767,-17.66701 -6.67308,-0.007 -6.67307,-0.007 v -5.62175 -5.62176 l 4.7493,-0.16305 c 13.75193,-0.47212 15.76906,-0.70417 17.69451,-2.03563 1.24834,-0.86323 3.97258,-3.69568 4.69109,-4.87743 0.76579,-1.25953 1.19676,-3.63211 1.48236,-8.1607 0.40714,-6.45596 -0.11621,-9.54136 -2.14253,-12.63132 -3.25487,-4.96338 -6.03033,-5.60905 -24.13014,-5.61352 l -10.03967,-0.002 v 40.03846 40.03846 h -7.33437 -7.33438 z m 62.82242,28.89401 c 0.71611,-0.006 2.26812,-1.63288 3.40086,-3.56583 1.50482,-2.56787 5.49708,-10.85151 6.27972,-13.02997 0.412,-1.14676 0.69109,-2.50409 0.76642,-3.7273 0.10504,-1.70582 0.0527,-2.04637 -0.46194,-3.00589 -0.31923,-0.59517 -1.1983,-1.58143 -1.9535,-2.1917 -1.63904,-1.32449 -5.98631,-3.62319 -7.88752,-4.17067 -1.3044,-0.37562 -1.42055,-0.37097 -2.86137,0.1144 -3.12437,1.05253 -6.79612,3.22323 -8.4588,5.00078 -2.6217,2.80281 -2.16979,5.52294 2.48879,14.98041 2.58155,5.24084 4.24805,8.10399 5.21493,8.95955 0.58006,0.51327 1.86257,0.88092 2.57133,0.7371 0.26452,-0.0537 0.67,-0.0991 0.90108,-0.10088 z"
       id="path201"
       transform="scale(0.26458333)" /><path
       style="fill:#ffffff;stroke:#000000;stroke-width:0.24085;paint-order:stroke markers fill"
       d="M 636.52734,687.50724 V 673.1992 h 7.33437 7.33437 v 14.30804 14.30804 h -7.33437 -7.33437 z"
       id="path202"
       transform="scale(0.26458333)" /></g></svg>
