<?xml version="1.0" encoding="UTF-8" standalone="no"?>
<!-- Created with Inkscape (http://www.inkscape.org/) -->

<svg
   width="119.99942"
   height="89.605659"
   viewBox="0 0 119.99942 89.605659"
   version="1.1"
   id="svg1"
   xmlns="http://www.w3.org/2000/svg"
   xmlns:svg="http://www.w3.org/2000/svg">
  <defs
     id="defs1" />
  <g
     id="layer1"
     transform="translate(-5.7999999e-4,-12.74293)">
    <path
       style="fill:#ffffff;stroke-width:4.55729"
       d="M 5.8e-4,57.545404 V 12.74293 l 19.967744,0.203256 c 21.895815,0.222851 23.312536,0.349086 29.62947,2.634656 3.232929,1.16981 8.1176,4.066339 9.577041,5.678978 0.694543,0.767494 0.718406,0.758789 3.033301,-1.106598 5.051489,-4.070531 11.665757,-6.285144 20.722131,-6.938249 2.880394,-0.207811 12.399414,-0.379167 21.153383,-0.380988 L 120,12.830585 v 7.138222 7.138259 h -17.92306 c -11.800871,0 -18.621471,0.14811 -19.96775,0.433853 -2.974194,0.631092 -5.396453,1.985108 -7.183988,4.015833 -2.230962,2.534534 -2.965452,4.929114 -2.954973,9.633874 0.0072,3.419354 0.134625,4.133527 1.11583,6.274628 1.712946,3.737887 4.738385,6.081516 9.023131,6.989692 1.344868,0.285285 8.179214,0.433398 19.96775,0.433398 H 120 v 7.138213 7.138212 l -16.68804,0.0091 -16.688023,0.0091 -8.444776,16.582248 -8.444777,16.582183 H 59.988678 50.242984 L 41.809795,85.852407 33.376617,69.357295 27.106552,69.251113 20.836487,69.144933 v -7.128687 -7.128643 l 7.620541,-0.0046 c 8.358515,-0.0046 10.86935,-0.381445 13.713911,-2.048729 2.156117,-1.263551 3.578361,-2.919396 4.863459,-5.662243 0.85906,-1.833533 0.994987,-2.646917 0.999413,-5.980685 0.0036,-2.915934 -0.183255,-4.366701 -0.765962,-5.93878 -1.474417,-3.977749 -4.84465,-6.749309 -9.376484,-7.710895 -1.174612,-0.249283 -5.813073,-0.433853 -10.900266,-0.433853 H 18.135536 V 64.728222 102.34859 H 9.0680583 5.8e-4 Z m 64.789677,16.682399 c 2.564843,-4.855151 4.663361,-9.097436 4.663361,-9.427336 0,-0.329948 -0.390662,-0.722467 -0.868162,-0.872357 -1.204216,-0.378254 -4.760004,-2.675308 -6.892792,-4.45306 l -1.780265,-1.483897 -0.72776,0.807642 c -0.957199,1.062303 -7.470217,5.349888 -8.12668,5.349888 -0.281043,0 -0.511011,0.272525 -0.511011,0.606119 0,0.549107 9.175698,18.300526 9.459538,18.300526 0.06619,0 2.218929,-3.972358 4.783771,-8.827525 z M 101.86503,87.106756 V 71.865671 H 110.93251 120 v 15.241085 15.241074 h -9.06749 -9.06748 z"
       id="path8" />
  </g>
</svg>
